<?xml version="1.0" standalone="no"?>
<!DOCTYPE svg PUBLIC "-//W3C//DTD SVG 20010904//EN"
 "http://www.w3.org/TR/2001/REC-SVG-20010904/DTD/svg10.dtd">
<svg version="1.0" xmlns="http://www.w3.org/2000/svg"
 width="400.000000pt" height="400.000000pt" viewBox="0 0 400.000000 400.000000"
 preserveAspectRatio="xMidYMid meet">
<metadata>
Created by potrace 1.11, written by Peter Selinger 2001-2013
</metadata>
<g transform="translate(0.000000,400.000000) scale(0.100000,-0.100000)"
fill="#000000" stroke="none">
<path d="M1849 3996 c-2 -2 -33 -6 -69 -9 -36 -3 -103 -13 -150 -22 -47 -10
-96 -19 -110 -22 -118 -21 -539 -202 -590 -253 -3 -3 -32 -23 -65 -45 -139
-91 -324 -262 -422 -391 -13 -16 -37 -47 -54 -69 -144 -186 -296 -523 -343
-760 -37 -189 -41 -236 -40 -450 2 -173 8 -241 39 -400 42 -214 152 -474 288
-680 204 -309 495 -558 832 -712 87 -40 274 -108 318 -117 12 -2 45 -10 72
-16 146 -34 252 -45 445 -45 202 0 230 3 470 50 14 3 63 17 110 31 541 168
976 541 1220 1046 85 175 142 357 175 553 26 157 27 469 2 622 -64 387 -238
753 -487 1027 -210 231 -473 415 -750 524 -78 31 -193 70 -226 77 -136 29
-218 45 -259 50 -55 7 -400 16 -406 11z"/>
</g>
</svg>
